<svg id="visual" viewBox="0 0 1600 400" width="1600" height="400" xmlns="http://www.w3.org/2000/svg" xmlns:xlink="http://www.w3.org/1999/xlink" version="1.1"><g stroke-width="1" stroke-linejoin="bevel"><path d="M848.9 170.3L704.1 254.7L896.9 245.7Z" fill="#9a6fe8" stroke="#9a6fe8"></path><path d="M704.1 254.7L884.9 400L896.9 245.7Z" fill="#9f79e5" stroke="#9f79e5"></path><path d="M848.9 170.3L689.1 127.3L704.1 254.7Z" fill="#9e77e6" stroke="#9e77e6"></path><path d="M537.3 400L710.1 400L704.1 254.7Z" fill="#a07be5" stroke="#a07be5"></path><path d="M704.1 254.7L710.1 400L884.9 400Z" fill="#9e77e6" stroke="#9e77e6"></path><path d="M848.9 170.3L740.1 0L689.1 127.3Z" fill="#a380e3" stroke="#a380e3"></path><path d="M553.3 0L553.3 151.3L689.1 127.3Z" fill="#9a6fe8" stroke="#9a6fe8"></path><path d="M689.1 127.3L553.3 151.3L704.1 254.7Z" fill="#9c73e7" stroke="#9c73e7"></path><path d="M884.9 400L1035.7 400L896.9 245.7Z" fill="#9a6fe8" stroke="#9a6fe8"></path><path d="M1054.7 121.3L919.9 0L848.9 170.3Z" fill="#9e77e6" stroke="#9e77e6"></path><path d="M848.9 170.3L919.9 0L740.1 0Z" fill="#9b71e8" stroke="#9b71e8"></path><path d="M553.3 151.3L521.3 251.7L704.1 254.7Z" fill="#a380e3" stroke="#a380e3"></path><path d="M1054.7 121.3L848.9 170.3L896.9 245.7Z" fill="#9f79e5" stroke="#9f79e5"></path><path d="M1035.7 400L1081.7 228.7L896.9 245.7Z" fill="#a17ce4" stroke="#a17ce4"></path><path d="M1081.7 228.7L1054.7 121.3L896.9 245.7Z" fill="#a380e3" stroke="#a380e3"></path><path d="M521.3 251.7L537.3 400L704.1 254.7Z" fill="#9a6fe8" stroke="#9a6fe8"></path><path d="M553.3 151.3L393.6 120.3L521.3 251.7Z" fill="#a380e3" stroke="#a380e3"></path><path d="M740.1 0L553.3 0L689.1 127.3Z" fill="#996de9" stroke="#996de9"></path><path d="M1241.4 105.3L1087.7 0L1054.7 121.3Z" fill="#a27ee4" stroke="#a27ee4"></path><path d="M1054.7 121.3L1087.7 0L919.9 0Z" fill="#9b71e8" stroke="#9b71e8"></path><path d="M553.3 0L393.6 120.3L553.3 151.3Z" fill="#a380e3" stroke="#a380e3"></path><path d="M521.3 251.7L369.6 400L537.3 400Z" fill="#9a6fe8" stroke="#9a6fe8"></path><path d="M328.6 235.7L369.6 400L521.3 251.7Z" fill="#a27ee4" stroke="#a27ee4"></path><path d="M1280.4 280.7L1241.4 105.3L1081.7 228.7Z" fill="#9d75e7" stroke="#9d75e7"></path><path d="M1081.7 228.7L1241.4 105.3L1054.7 121.3Z" fill="#a380e3" stroke="#a380e3"></path><path d="M393.6 120.3L328.6 235.7L521.3 251.7Z" fill="#9a6fe8" stroke="#9a6fe8"></path><path d="M1035.7 400L1253.4 400L1081.7 228.7Z" fill="#9f79e5" stroke="#9f79e5"></path><path d="M1241.4 105.3L1207.4 0L1087.7 0Z" fill="#9b71e8" stroke="#9b71e8"></path><path d="M1253.4 400L1280.4 280.7L1081.7 228.7Z" fill="#9a6fe8" stroke="#9a6fe8"></path><path d="M553.3 0L350.6 0L393.6 120.3Z" fill="#a380e3" stroke="#a380e3"></path><path d="M393.6 120.3L189.8 110.3L328.6 235.7Z" fill="#9e77e6" stroke="#9e77e6"></path><path d="M1444.2 400L1392.2 258.7L1280.4 280.7Z" fill="#9e77e6" stroke="#9e77e6"></path><path d="M1280.4 280.7L1392.2 258.7L1241.4 105.3Z" fill="#9f79e5" stroke="#9f79e5"></path><path d="M1241.4 105.3L1424.2 0L1207.4 0Z" fill="#a07be5" stroke="#a07be5"></path><path d="M350.6 0L189.8 110.3L393.6 120.3Z" fill="#9a6fe8" stroke="#9a6fe8"></path><path d="M328.6 235.7L150.8 400L369.6 400Z" fill="#a17ce4" stroke="#a17ce4"></path><path d="M1392.2 258.7L1437.2 152.3L1241.4 105.3Z" fill="#9c73e7" stroke="#9c73e7"></path><path d="M189.8 110.3L147.8 242.7L328.6 235.7Z" fill="#a27ee4" stroke="#a27ee4"></path><path d="M1253.4 400L1444.2 400L1280.4 280.7Z" fill="#9e77e6" stroke="#9e77e6"></path><path d="M1392.2 258.7L1600 226.7L1437.2 152.3Z" fill="#a17ce4" stroke="#a17ce4"></path><path d="M350.6 0L187.8 0L189.8 110.3Z" fill="#9d75e7" stroke="#9d75e7"></path><path d="M0 134.3L0 304.7L147.8 242.7Z" fill="#9b71e8" stroke="#9b71e8"></path><path d="M147.8 242.7L150.8 400L328.6 235.7Z" fill="#9b71e8" stroke="#9b71e8"></path><path d="M1437.2 152.3L1424.2 0L1241.4 105.3Z" fill="#9c73e7" stroke="#9c73e7"></path><path d="M1444.2 400L1600 226.7L1392.2 258.7Z" fill="#9d75e7" stroke="#9d75e7"></path><path d="M1437.2 152.3L1600 123.3L1424.2 0Z" fill="#9b71e8" stroke="#9b71e8"></path><path d="M147.8 242.7L0 304.7L150.8 400Z" fill="#a27ee4" stroke="#a27ee4"></path><path d="M0 134.3L147.8 242.7L189.8 110.3Z" fill="#996de9" stroke="#996de9"></path><path d="M0 0L0 134.3L189.8 110.3Z" fill="#9e77e6" stroke="#9e77e6"></path><path d="M1600 226.7L1600 123.3L1437.2 152.3Z" fill="#a17ce4" stroke="#a17ce4"></path><path d="M1444.2 400L1600 400L1600 226.7Z" fill="#9a6fe8" stroke="#9a6fe8"></path><path d="M0 304.7L0 400L150.8 400Z" fill="#a07be5" stroke="#a07be5"></path><path d="M1600 123.3L1600 0L1424.2 0Z" fill="#9b71e8" stroke="#9b71e8"></path><path d="M187.8 0L0 0L189.8 110.3Z" fill="#a07be5" stroke="#a07be5"></path></g></svg>