<svg id="visual" viewBox="0 0 3840 2160" width="3840" height="2160" xmlns="http://www.w3.org/2000/svg" xmlns:xlink="http://www.w3.org/1999/xlink" version="1.1"><path d="M0 1298L64 1308.7C128 1319.3 256 1340.7 384 1379.2C512 1417.7 640 1473.3 768 1466.3C896 1459.3 1024 1389.7 1152 1343C1280 1296.3 1408 1272.7 1536 1304.8C1664 1337 1792 1425 1920 1458.5C2048 1492 2176 1471 2304 1454.5C2432 1438 2560 1426 2688 1401.2C2816 1376.3 2944 1338.7 3072 1339C3200 1339.3 3328 1377.7 3456 1370.8C3584 1364 3712 1312 3776 1286L3840 1260L3840 2161L3776 2161C3712 2161 3584 2161 3456 2161C3328 2161 3200 2161 3072 2161C2944 2161 2816 2161 2688 2161C2560 2161 2432 2161 2304 2161C2176 2161 2048 2161 1920 2161C1792 2161 1664 2161 1536 2161C1408 2161 1280 2161 1152 2161C1024 2161 896 2161 768 2161C640 2161 512 2161 384 2161C256 2161 128 2161 64 2161L0 2161Z" fill="#a380e3"></path><path d="M0 1526L64 1552C128 1578 256 1630 384 1622.5C512 1615 640 1548 768 1524.7C896 1501.3 1024 1521.7 1152 1547.5C1280 1573.3 1408 1604.7 1536 1613.7C1664 1622.7 1792 1609.3 1920 1573.5C2048 1537.7 2176 1479.3 2304 1447.5C2432 1415.7 2560 1410.3 2688 1439.2C2816 1468 2944 1531 3072 1541C3200 1551 3328 1508 3456 1517C3584 1526 3712 1587 3776 1617.5L3840 1648L3840 2161L3776 2161C3712 2161 3584 2161 3456 2161C3328 2161 3200 2161 3072 2161C2944 2161 2816 2161 2688 2161C2560 2161 2432 2161 2304 2161C2176 2161 2048 2161 1920 2161C1792 2161 1664 2161 1536 2161C1408 2161 1280 2161 1152 2161C1024 2161 896 2161 768 2161C640 2161 512 2161 384 2161C256 2161 128 2161 64 2161L0 2161Z" fill="#bc9feb"></path><path d="M0 1780L64 1753.7C128 1727.3 256 1674.7 384 1677.7C512 1680.7 640 1739.3 768 1734.8C896 1730.3 1024 1662.7 1152 1628.5C1280 1594.3 1408 1593.7 1536 1614.8C1664 1636 1792 1679 1920 1690.2C2048 1701.3 2176 1680.7 2304 1678.2C2432 1675.7 2560 1691.3 2688 1684.5C2816 1677.7 2944 1648.3 3072 1651.2C3200 1654 3328 1689 3456 1697.3C3584 1705.7 3712 1687.3 3776 1678.2L3840 1669L3840 2161L3776 2161C3712 2161 3584 2161 3456 2161C3328 2161 3200 2161 3072 2161C2944 2161 2816 2161 2688 2161C2560 2161 2432 2161 2304 2161C2176 2161 2048 2161 1920 2161C1792 2161 1664 2161 1536 2161C1408 2161 1280 2161 1152 2161C1024 2161 896 2161 768 2161C640 2161 512 2161 384 2161C256 2161 128 2161 64 2161L0 2161Z" fill="#d3bef2"></path><path d="M0 1789L64 1809.2C128 1829.3 256 1869.7 384 1890.3C512 1911 640 1912 768 1916.3C896 1920.7 1024 1928.3 1152 1907.8C1280 1887.3 1408 1838.7 1536 1839.7C1664 1840.7 1792 1891.3 1920 1911.7C2048 1932 2176 1922 2304 1913.2C2432 1904.3 2560 1896.7 2688 1901.3C2816 1906 2944 1923 3072 1908C3200 1893 3328 1846 3456 1844C3584 1842 3712 1885 3776 1906.5L3840 1928L3840 2161L3776 2161C3712 2161 3584 2161 3456 2161C3328 2161 3200 2161 3072 2161C2944 2161 2816 2161 2688 2161C2560 2161 2432 2161 2304 2161C2176 2161 2048 2161 1920 2161C1792 2161 1664 2161 1536 2161C1408 2161 1280 2161 1152 2161C1024 2161 896 2161 768 2161C640 2161 512 2161 384 2161C256 2161 128 2161 64 2161L0 2161Z" fill="#e9def9"></path><path d="M0 1957L64 1951.5C128 1946 256 1935 384 1946.8C512 1958.7 640 1993.3 768 2006.5C896 2019.7 1024 2011.3 1152 2007.3C1280 2003.3 1408 2003.7 1536 2011.3C1664 2019 1792 2034 1920 2024.3C2048 2014.7 2176 1980.3 2304 1962.7C2432 1945 2560 1944 2688 1936.7C2816 1929.3 2944 1915.7 3072 1914.7C3200 1913.7 3328 1925.3 3456 1952C3584 1978.7 3712 2020.3 3776 2041.2L3840 2062L3840 2161L3776 2161C3712 2161 3584 2161 3456 2161C3328 2161 3200 2161 3072 2161C2944 2161 2816 2161 2688 2161C2560 2161 2432 2161 2304 2161C2176 2161 2048 2161 1920 2161C1792 2161 1664 2161 1536 2161C1408 2161 1280 2161 1152 2161C1024 2161 896 2161 768 2161C640 2161 512 2161 384 2161C256 2161 128 2161 64 2161L0 2161Z" fill="#ffffff"></path></svg>