<svg id="visual" viewBox="0 0 1600 600" width="1600" height="600" xmlns="http://www.w3.org/2000/svg" xmlns:xlink="http://www.w3.org/1999/xlink" version="1.1"><g stroke-width="1" stroke-linejoin="bevel"><path d="M884.9 329L707.1 420L894.9 433Z" fill="#9b71e8" stroke="#9b71e8"></path><path d="M884.9 329L697.1 284L707.1 420Z" fill="#996de9" stroke="#996de9"></path><path d="M707.1 420L727.1 600L894.9 433Z" fill="#996de9" stroke="#996de9"></path><path d="M884.9 329L713.1 181L697.1 284Z" fill="#9d75e7" stroke="#9d75e7"></path><path d="M727.1 600L890.9 600L894.9 433Z" fill="#9c73e7" stroke="#9c73e7"></path><path d="M890.9 600L1034.7 489L894.9 433Z" fill="#996de9" stroke="#996de9"></path><path d="M894.9 433L1085.7 321L884.9 329Z" fill="#996de9" stroke="#996de9"></path><path d="M1028.7 168L865.9 124L884.9 329Z" fill="#a27ee4" stroke="#a27ee4"></path><path d="M884.9 329L865.9 124L713.1 181Z" fill="#9a6fe8" stroke="#9a6fe8"></path><path d="M697.1 284L526.3 457L707.1 420Z" fill="#9f79e5" stroke="#9f79e5"></path><path d="M707.1 420L526.3 457L727.1 600Z" fill="#9b71e8" stroke="#9b71e8"></path><path d="M497.3 283L526.3 457L697.1 284Z" fill="#9f79e5" stroke="#9f79e5"></path><path d="M1034.7 489L1085.7 321L894.9 433Z" fill="#9f79e5" stroke="#9f79e5"></path><path d="M1085.7 321L1028.7 168L884.9 329Z" fill="#9b71e8" stroke="#9b71e8"></path><path d="M556.3 156L497.3 283L697.1 284Z" fill="#9c73e7" stroke="#9c73e7"></path><path d="M890.9 600L1061.7 600L1034.7 489Z" fill="#a380e3" stroke="#a380e3"></path><path d="M1255.4 465L1228.4 279L1085.7 321Z" fill="#9d75e7" stroke="#9d75e7"></path><path d="M713.1 181L556.3 156L697.1 284Z" fill="#a17ce4" stroke="#a17ce4"></path><path d="M694.1 0L556.3 156L713.1 181Z" fill="#9b71e8" stroke="#9b71e8"></path><path d="M372.6 479L523.3 600L526.3 457Z" fill="#a17ce4" stroke="#a17ce4"></path><path d="M526.3 457L523.3 600L727.1 600Z" fill="#9e77e6" stroke="#9e77e6"></path><path d="M927.9 0L694.1 0L865.9 124Z" fill="#9c73e7" stroke="#9c73e7"></path><path d="M865.9 124L694.1 0L713.1 181Z" fill="#a07be5" stroke="#a07be5"></path><path d="M1028.7 168L927.9 0L865.9 124Z" fill="#9c73e7" stroke="#9c73e7"></path><path d="M361.6 178L382.6 316L497.3 283Z" fill="#9f79e5" stroke="#9f79e5"></path><path d="M497.3 283L382.6 316L526.3 457Z" fill="#9d75e7" stroke="#9d75e7"></path><path d="M361.6 178L497.3 283L556.3 156Z" fill="#996de9" stroke="#996de9"></path><path d="M1085.7 321L1219.4 154L1028.7 168Z" fill="#a380e3" stroke="#a380e3"></path><path d="M1028.7 168L1032.7 0L927.9 0Z" fill="#a17ce4" stroke="#a17ce4"></path><path d="M1255.4 465L1085.7 321L1034.7 489Z" fill="#9f79e5" stroke="#9f79e5"></path><path d="M382.6 316L372.6 479L526.3 457Z" fill="#a17ce4" stroke="#a17ce4"></path><path d="M1219.4 154L1032.7 0L1028.7 168Z" fill="#a07be5" stroke="#a07be5"></path><path d="M1061.7 600L1205.4 600L1034.7 489Z" fill="#a07be5" stroke="#a07be5"></path><path d="M1205.4 600L1255.4 465L1034.7 489Z" fill="#9d75e7" stroke="#9d75e7"></path><path d="M1233.4 0L1219.4 154L1410.2 133Z" fill="#a380e3" stroke="#a380e3"></path><path d="M1228.4 279L1219.4 154L1085.7 321Z" fill="#a07be5" stroke="#a07be5"></path><path d="M694.1 0L512.3 0L556.3 156Z" fill="#a27ee4" stroke="#a27ee4"></path><path d="M512.3 0L361.6 178L556.3 156Z" fill="#9e77e6" stroke="#9e77e6"></path><path d="M171.8 600L328.6 600L372.6 479Z" fill="#a17ce4" stroke="#a17ce4"></path><path d="M149.8 421L372.6 479L382.6 316Z" fill="#9c73e7" stroke="#9c73e7"></path><path d="M372.6 479L328.6 600L523.3 600Z" fill="#996de9" stroke="#996de9"></path><path d="M1410.2 133L1219.4 154L1228.4 279Z" fill="#9f79e5" stroke="#9f79e5"></path><path d="M1219.4 154L1233.4 0L1032.7 0Z" fill="#a27ee4" stroke="#a27ee4"></path><path d="M512.3 0L341.6 0L361.6 178Z" fill="#9d75e7" stroke="#9d75e7"></path><path d="M142.8 335L149.8 421L382.6 316Z" fill="#9f79e5" stroke="#9f79e5"></path><path d="M1255.4 465L1403.2 302L1228.4 279Z" fill="#9b71e8" stroke="#9b71e8"></path><path d="M1457.2 437L1403.2 302L1255.4 465Z" fill="#9d75e7" stroke="#9d75e7"></path><path d="M1205.4 600L1415.2 600L1255.4 465Z" fill="#996de9" stroke="#996de9"></path><path d="M142.8 335L382.6 316L361.6 178Z" fill="#a17ce4" stroke="#a17ce4"></path><path d="M341.6 0L206.8 119L361.6 178Z" fill="#9b71e8" stroke="#9b71e8"></path><path d="M1415.2 600L1457.2 437L1255.4 465Z" fill="#9f79e5" stroke="#9f79e5"></path><path d="M1600 184L1410.2 133L1403.2 302Z" fill="#a17ce4" stroke="#a17ce4"></path><path d="M1403.2 302L1410.2 133L1228.4 279Z" fill="#9f79e5" stroke="#9f79e5"></path><path d="M206.8 119L142.8 335L361.6 178Z" fill="#9a6fe8" stroke="#9a6fe8"></path><path d="M149.8 421L171.8 600L372.6 479Z" fill="#a17ce4" stroke="#a17ce4"></path><path d="M1600 0L1392.2 0L1410.2 133Z" fill="#996de9" stroke="#996de9"></path><path d="M1410.2 133L1392.2 0L1233.4 0Z" fill="#9a6fe8" stroke="#9a6fe8"></path><path d="M341.6 0L197.8 0L206.8 119Z" fill="#a27ee4" stroke="#a27ee4"></path><path d="M0 302L149.8 421L142.8 335Z" fill="#996de9" stroke="#996de9"></path><path d="M1415.2 600L1600 474L1457.2 437Z" fill="#9a6fe8" stroke="#9a6fe8"></path><path d="M1457.2 437L1600 262L1403.2 302Z" fill="#996de9" stroke="#996de9"></path><path d="M1600 474L1600 262L1457.2 437Z" fill="#a07be5" stroke="#a07be5"></path><path d="M0 302L0 476L149.8 421Z" fill="#9a6fe8" stroke="#9a6fe8"></path><path d="M149.8 421L0 476L171.8 600Z" fill="#a17ce4" stroke="#a17ce4"></path><path d="M0 302L142.8 335L0 133Z" fill="#9c73e7" stroke="#9c73e7"></path><path d="M0 133L142.8 335L206.8 119Z" fill="#9b71e8" stroke="#9b71e8"></path><path d="M1600 262L1600 184L1403.2 302Z" fill="#a07be5" stroke="#a07be5"></path><path d="M1415.2 600L1600 600L1600 474Z" fill="#a17ce4" stroke="#a17ce4"></path><path d="M0 476L0 600L171.8 600Z" fill="#9c73e7" stroke="#9c73e7"></path><path d="M197.8 0L0 133L206.8 119Z" fill="#9f79e5" stroke="#9f79e5"></path><path d="M1600 184L1600 0L1410.2 133Z" fill="#a07be5" stroke="#a07be5"></path><path d="M197.8 0L0 0L0 133Z" fill="#a380e3" stroke="#a380e3"></path></g></svg>